{"title":"Red 2010 DvDScr XviD Feel-Free","uid":5886748,"size":1192427335,"categoryP":"video","categoryS":"movies","magnet":"?xt=urn:btih:c3a0fb9056f92d1ca0759cbe5c64705ac79f4be3&amp;dn=Red+2010+DvDScr+XviD+Feel-Free&amp;tr=udp%3A%2F%2Ftracker.openbittorrent.com%3A80&amp;tr=udp%3A%2F%2Fopen.demonii.com%3A1337&amp;tr=udp%3A%2F%2Ftracker.coppersurfer.tk%3A6969&amp;tr=udp%3A%2F%2Fexodus.desync.com%3A6969","seeders":1,"leechers":0,"uploader":"neon","files":9,"time":1287083467,"description":"When his idyllic life is threatened by a high-tech assassin, former black-ops agent Frank Moses reassembles his old team in a last ditch effort to survive.\n\nGenre:Action | Comedy\nLanguage:English\n &lt;a href=&quot; http://www.imdb.com/title/tt1245526/&quot; rel=&quot;nofollow&quot; target=&quot;_NEW&quot;&gt; http://www.imdb.com/title/tt1245526/&lt;/a&gt;\nSource:DvDScr Jekyll.Thx\n &lt;a href=&quot;\nhttp://www.starshare.ro/bitbucket/Red%202010%20DvDScr%20XviD%20Feel-Free.avi_snapshot_00.05.55_%5B2010.10.14_19.27.36%5D.jpg&quot; rel=&quot;nofollow&quot; target=&quot;_NEW&quot;&gt;\nhttp://www.starshare.ro/bitbucket/Red%202010%20DvDScr%20XviD%20Feel-Free.avi_snapshot_00.05.55_%5B2010.10.14_19.27.36%5D.jpg&lt;/a&gt;\n &lt;a href=&quot;\nhttp://www.starshare.ro/bitbucket/Red%202010%20DvDScr%20XviD%20Feel-Free.avi_snapshot_00.19.32_%5B2010.10.14_19.27.00%5D.jpg&quot; rel=&quot;nofollow&quot; target=&quot;_NEW&quot;&gt;\nhttp://www.starshare.ro/bitbucket/Red%202010%20DvDScr%20XviD%20Feel-Free.avi_snapshot_00.19.32_%5B2010.10.14_19.27.00%5D.jpg&lt;/a&gt;\n &lt;a href=&quot;\nhttp://www.starshare.ro/bitbucket/Red%202010%20DvDScr%20XviD%20Feel-Free.avi_snapshot_00.26.10_%5B2010.10.14_19.27.02%5D.jpg&quot; rel=&quot;nofollow&quot; target=&quot;_NEW&quot;&gt;\nhttp://www.starshare.ro/bitbucket/Red%202010%20DvDScr%20XviD%20Feel-Free.avi_snapshot_00.26.10_%5B2010.10.14_19.27.02%5D.jpg&lt;/a&gt;\n &lt;a href=&quot;\nhttp://www.starshare.ro/bitbucket/Red%202010%20DvDScr%20XviD%20Feel-Free.avi_snapshot_01.00.57_%5B2010.10.14_19.27.06%5D.jpg&quot; rel=&quot;nofollow&quot; target=&quot;_NEW&quot;&gt;\nhttp://www.starshare.ro/bitbucket/Red%202010%20DvDScr%20XviD%20Feel-Free.avi_snapshot_01.00.57_%5B2010.10.14_19.27.06%5D.jpg&lt;/a&gt;\n &lt;a href=&quot;\nhttp://www.starshare.ro/bitbucket/Red%202010%20DvDScr%20XviD%20Feel-Free.avi_snapshot_01.23.00_%5B2010.10.14_19.27.20%5D.jpg&quot; rel=&quot;nofollow&quot; target=&quot;_NEW&quot;&gt;\nhttp://www.starshare.ro/bitbucket/Red%202010%20DvDScr%20XviD%20Feel-Free.avi_snapshot_01.23.00_%5B2010.10.14_19.27.20%5D.jpg&lt;/a&gt;\n &lt;a href=&quot;\nhttp://www.youtube.com/watch?v=rMCh4etBbkU&amp;feature=player_embedded&quot; rel=&quot;nofollow&quot; target=&quot;_NEW&quot;&gt;\nhttp://www.youtube.com/watch?v=rMCh4etBbkU&amp;feature=player_embedded&lt;/a&gt;\n\nGeneral\nComplete name :Red 2010 DvDScr XviD Feel-Free\nFormat : AVI\nFormat/Info : Audio Video Interleave\nFile size : 1.11 GiB\nDuration : 2h 1mn\nOverall bit rate : 1 310 Kbps\nVideo #0\nID : 0\nFormat : MPEG-4 Visual\nFormat profile : AdvancedSimple@L5\nFormat settings, BVOP : Yes\nFormat settings, QPel : No\nFormat settings, GMC : No warppoints\nFormat settings, Matrix : Default (H.263)\nMuxing mode : Packed bitstream\nCodec ID : XVID\nCodec ID/Hint : XviD\nDuration : 2h 1mn\nBit rate : 852 Kbps\nWidth : 688 pixels\nHeight : 288 pixels\nDisplay aspect ratio : 2.35:1\nFrame rate : 23.976 fps\nResolution : 24 bits\nColorimetry : 4:2:0\nScan type : Progressive\nBits/(Pixel*Frame) : 0.179\nStream size : 740 MiB (65%)\nWriting library : XviD 1.2.1 (UTC 2008-12-04)\nAudio #1\nID : 1\nFormat : AC-3\nFormat/Info : Audio Coding 3\nCodec ID : 2000\nDuration : 2h 1mn\nBit rate mode : Constant\nBit rate : 448 Kbps\nChannel(s) : 6 channels\nChannel positions : Front: L C R, Surround: L R, LFE\nSampling rate : 48.0 KHz\nStream size : 389 MiB (34%)\nAlignment : Split accross interleaves\nInterleave, duration : 42 ms (1.00 video frame)\nInterleave, preload duration : 500 ms\n","torrent":{"xt":"urn:btih:c3a0fb9056f92d1ca0759cbe5c64705ac79f4be3","amp;dn":"Red+2010+DvDScr+XviD+Feel-Free","amp;tr":["udp%3A%2F%2Ftracker.openbittorrent.com%3A80","udp%3A%2F%2Fopen.demonii.com%3A1337","udp%3A%2F%2Ftracker.coppersurfer.tk%3A6969","udp%3A%2F%2Fexodus.desync.com%3A6969"],"infoHash":"c3a0fb9056f92d1ca0759cbe5c64705ac79f4be3","infoHashBuffer":{"type":"Buffer","data":[195,160,251,144,86,249,45,28,160,117,156,190,92,100,112,90,199,159,75,227]},"announce":[],"urlList":[]}}